<svg width="32" height="32" viewBox="0 0 32 32" fill="none" xmlns="http://www.w3.org/2000/svg">
<path d="M27.3513 0H4.26378C1.90896 0 0 1.91025 0 4.26666V27.3697C0 29.7261 1.90896 31.6364 4.26378 31.6364H27.3513C29.7061 31.6364 31.615 29.7261 31.615 27.3697V4.26666C31.615 1.91025 29.7061 0 27.3513 0Z" fill="url(#paint0_linear_616_181)"/>
<path d="M9.30911 20.3181C8.829 19.7925 8.46006 19.1752 8.22445 18.5032C7.98885 17.8313 7.89146 17.1187 7.93812 16.4081V9.96011H10.5978V16.3121C10.5978 18.37 11.4616 19.4126 13.1753 19.4126C13.5286 19.4326 13.8821 19.3755 14.2111 19.2452C14.5402 19.1149 14.837 18.9146 15.081 18.6581C15.5764 17.9813 15.8102 17.148 15.7391 16.3121V9.96011H18.3713V16.463C18.4149 17.1733 18.316 17.8851 18.0806 18.5566C17.8451 19.228 17.4778 19.8456 17.0004 20.3729C16.4821 20.8472 15.8743 21.2129 15.2127 21.4485C14.551 21.6841 13.849 21.7849 13.1479 21.7449C12.445 21.7781 11.7426 21.6688 11.0829 21.4236C10.4233 21.1784 9.81994 20.8024 9.30911 20.3181Z" fill="#232946" stroke="#232946" stroke-miterlimit="10"/>
<path d="M21.0035 9.96011H23.6633V21.4842H21.0035V9.96011Z" fill="#232946" stroke="#232946" stroke-miterlimit="10"/>
<defs>
<linearGradient id="paint0_linear_616_181" x1="15.8075" y1="-11.5241" x2="15.8075" y2="34.2842" gradientUnits="userSpaceOnUse">
<stop offset="0.07" stop-color="#B9C0E1"/>
<stop offset="0.24" stop-color="#B8BBDE"/>
<stop offset="0.45" stop-color="#B3ADD5"/>
<stop offset="0.68" stop-color="#AC95C7"/>
<stop offset="0.89" stop-color="#A478B5"/>
</linearGradient>
</defs>
</svg>
