<svg width="102" height="97" viewBox="0 0 102 97" fill="none" xmlns="http://www.w3.org/2000/svg">
<rect x="2" y="2" width="98" height="93" rx="6" fill="white" stroke="#232946" stroke-width="4"/>
<rect x="12" y="40" width="37" height="37" fill="#6246EA"/>
<circle cx="52.5" cy="40.5" r="22.5" fill="#EEBBC2"/>
<path d="M75.4617 56.6242C75.153 56.0393 74.7059 55.5388 74.1594 55.1664C73.6129 54.7939 72.9836 54.5607 72.3263 54.4871L53.7488 52.4076L53.0327 53.5123L64.321 60.8294C64.6694 60.5612 65.0743 60.3575 65.5329 60.2597C67.1757 59.909 68.7918 60.9565 69.1425 62.5994C69.4931 64.2423 68.4456 65.8583 66.8027 66.209C65.1598 66.5596 63.5438 65.5121 63.1931 63.8692C63.0953 63.4107 63.1159 62.9579 63.2184 62.5304L51.9301 55.2133L51.2141 56.318L60.6974 72.4275C61.0329 72.9975 61.5027 73.4767 62.0658 73.8235C62.629 74.1703 63.2684 74.3741 63.9283 74.4172L73.8769 75.0663L80.1162 65.4407L75.4617 56.6242ZM84.2461 78.1624L87.1761 73.6421C88.0901 72.2321 87.6878 70.3476 86.2778 69.4336L82.0253 66.6771L75.785 76.3042L80.0376 79.0607C81.4475 79.9746 83.3315 79.5725 84.2461 78.1624Z" fill="#232946"/>
</svg>
