<svg width="102" height="102" viewBox="0 0 102 102" fill="none" xmlns="http://www.w3.org/2000/svg">
<rect x="2" y="2" width="98" height="98" rx="6" fill="white" stroke="#232946" stroke-width="4"/>
<circle cx="39.5" cy="51.5" r="2.5" fill="#6246EA"/>
<circle cx="47.5" cy="51.5" r="2.5" fill="#6246EA"/>
<circle cx="55.5" cy="51.5" r="2.5" fill="#6246EA"/>
<circle cx="63.5" cy="51.5" r="2.5" fill="#6246EA"/>
<path d="M31.2834 15.621C32.3953 15.2302 33.5837 15.8632 33.9725 16.9758V16.9758C34.393 18.1791 33.7097 19.4647 32.5779 20.051C30.7516 20.9971 29.4251 22.3333 28.5985 24.0596C27.4744 26.3826 26.9124 29.0479 26.9124 32.0555V39.648C26.9124 42.0932 26.4003 44.3184 25.3762 46.3235C24.377 48.3041 22.7784 49.8813 20.5803 51.055C18.8838 51.9712 16.7688 52.5299 14.2353 52.7309C13.0034 52.8286 12 51.8139 12 50.5782V50.5782C12 49.3425 13.012 48.3785 14.2262 48.1487C15.9148 47.8291 17.196 47.1106 18.0699 45.9934C19.3188 44.4284 19.9433 42.3133 19.9433 39.648V32.0555C19.9433 29.488 20.343 27.0917 21.1423 24.8665C21.9666 22.6169 23.3404 20.6485 25.2638 18.9613C26.8126 17.6006 28.8191 16.4872 31.2834 15.621ZM32.5855 81.8965C33.7136 82.4955 34.3968 83.782 33.9787 84.9889V84.9889C33.5874 86.1185 32.3792 86.7587 31.2534 86.3563C28.8028 85.4803 26.8063 84.3745 25.2638 83.0387C23.3404 81.3515 21.9666 79.3831 21.1423 77.1335C20.343 74.9083 19.9433 72.512 19.9433 69.9445V62.3887C19.9433 60.6037 19.6685 59.0632 19.119 57.7672C18.5695 56.4712 17.7077 55.4687 16.5337 54.7596C15.8808 54.3428 15.1111 54.0444 14.2244 53.8644C13.0134 53.6186 12 52.6575 12 51.4218V51.4218C12 50.1861 13.0034 49.1714 14.2352 49.2691C16.7688 49.4701 18.8838 50.0288 20.5803 50.945C22.7784 52.1187 24.377 53.7081 25.3762 55.7132C26.4003 57.6938 26.9124 59.919 26.9124 62.3887V69.9445C26.9124 71.9496 27.1497 73.8079 27.6243 75.5196C28.1239 77.2313 28.9357 78.7106 30.0598 79.9577C30.7521 80.7238 31.594 81.3701 32.5855 81.8965Z" fill="#EEBBC2"/>
<path d="M68.2496 20.0596C67.1215 19.4645 66.4378 18.1794 66.8585 16.9753V16.9753C67.2475 15.8624 68.4353 15.2282 69.5483 15.617C72.0295 16.4838 74.0358 17.5985 75.5671 18.9613C77.5154 20.6485 78.8893 22.6169 79.6886 24.8665C80.4879 27.0917 80.8876 29.488 80.8876 32.0555V39.648C80.8876 41.4086 81.1624 42.9491 81.7119 44.2695C82.2614 45.5655 83.1107 46.568 84.2597 47.2771C84.9683 47.7051 85.8043 48.004 86.7677 48.1736C87.8949 48.3722 88.8309 49.2686 88.8309 50.4131V50.4131C88.8309 51.5577 87.9014 52.4956 86.7596 52.4169C84.1704 52.2383 82.0007 51.711 80.2506 50.8349C78.0525 49.7101 76.4414 48.1819 75.4172 46.2501C74.4181 44.2939 73.9185 42.0932 73.9185 39.648V32.0555C73.9185 30.0504 73.6812 28.1921 73.2066 26.4804C72.732 24.7443 71.9202 23.2527 70.7711 22.0056C70.0908 21.236 69.2503 20.5873 68.2496 20.0596ZM69.5768 86.361C68.4508 86.7609 67.244 86.12 66.8529 84.9909V84.9909C66.4344 83.783 67.1189 82.4961 68.2461 81.893C69.2287 81.3672 70.0579 80.7221 70.7337 79.9577C71.8827 78.7106 72.6945 77.2313 73.1691 75.5196C73.6687 73.8079 73.9185 71.9496 73.9185 69.9445V62.3887C73.9185 59.919 74.4181 57.7183 75.4172 55.7866C76.4414 53.8548 78.0525 52.3388 80.2506 51.2384C82.0049 50.3408 84.1806 49.8013 86.778 49.62C87.9096 49.541 88.8309 50.4708 88.8309 51.6052V51.6052C88.8309 52.7396 87.903 53.6286 86.7856 53.8239C85.0232 54.1318 83.6817 54.8716 82.761 56.0433C81.5121 57.6083 80.8876 59.7234 80.8876 62.3887V69.9445C80.8876 72.512 80.4879 74.9083 79.6886 77.1335C78.8893 79.3831 77.5154 81.3515 75.5671 83.0387C74.0417 84.3768 72.0449 85.4843 69.5768 86.361Z" fill="#EEBBC2"/>
</svg>
