<svg width="51" height="51" viewBox="0 0 51 51" fill="none" xmlns="http://www.w3.org/2000/svg">
<path d="M43.3916 1H7.60841C3.95869 1 1 3.95869 1 7.60841V43.3916C1 47.0413 3.95869 50 7.60841 50H43.3916C47.0413 50 50 47.0413 50 43.3916V7.60841C50 3.95869 47.0413 1 43.3916 1Z" fill="white" stroke="white" stroke-miterlimit="10"/>
<path d="M15.4493 32.4697C14.7062 31.6549 14.1351 30.6987 13.77 29.6582C13.4049 28.6176 13.2533 27.5142 13.3244 26.4137V16.4268H17.5742V26.265C17.5742 29.4523 18.8917 31.0673 21.5478 31.0673C22.0957 31.1012 22.6444 31.0141 23.1548 30.8121C23.6653 30.6101 24.125 30.2982 24.5014 29.8986C25.2393 28.839 25.5711 27.5492 25.4363 26.265V16.4268H29.4736V26.4137C29.5459 27.5143 29.395 28.6181 29.0298 29.6588C28.6647 30.6995 28.0928 31.6556 27.3487 32.4697C26.5501 33.2046 25.6118 33.7714 24.5897 34.1365C23.5676 34.5015 22.4825 34.6573 21.399 34.5946C20.3154 34.6585 19.23 34.5033 18.2077 34.1382C17.1855 33.7731 16.2473 33.2056 15.4493 32.4697Z" fill="#232946"/>
<path d="M33.5533 16.4268H37.6969V34.2758H33.5533V16.4268Z" fill="#232946"/>
</svg>
