<svg width="102" height="102" viewBox="0 0 102 102" fill="none" xmlns="http://www.w3.org/2000/svg">
<rect x="2" y="2" width="98" height="98" rx="6" fill="white" stroke="#232946" stroke-width="4"/>
<circle cx="39.5" cy="51.5" r="2.5" fill="#6246EA"/>
<circle cx="47.5" cy="51.5" r="2.5" fill="#6246EA"/>
<circle cx="55.5" cy="51.5" r="2.5" fill="#6246EA"/>
<circle cx="63.5" cy="51.5" r="2.5" fill="#6246EA"/>
<path d="M12.7325 49.8805L36.8482 67.5756C37.8752 68.3292 38.4819 69.5268 38.4819 70.8006V73.4227C38.4819 76.8203 34.5138 78.6708 31.9109 76.487L23.2409 69.2129L9.42904 57.6248C8.52318 56.8648 8 55.743 8 54.5605V48.6659L12.7325 49.8805ZM38.4819 32.3531C38.4819 33.6164 37.8851 34.8054 36.8723 35.5603L12.7698 53.5243L8 54.469V48.5101C8 47.3259 8.52478 46.2025 9.43303 45.4425L31.9149 26.6301C34.5187 24.4513 38.4819 26.3026 38.4819 29.6977V32.3531Z" fill="#EEBBC2"/>
<path d="M88.1713 52.5796L63.3708 35.0835C62.3085 34.334 61.6766 33.115 61.6766 31.815V29.3323C61.6766 25.9766 65.5598 24.1124 68.1783 26.2111L92.0016 45.3057C92.9488 46.0648 93.5 47.213 93.5 48.4269V54.4015L88.1713 52.5796ZM61.6766 71.0953C61.6766 69.8076 62.2965 68.5987 63.3421 67.8472L88.2458 49.948L93.5 48.531V54.4413C93.5 55.6534 92.9504 56.8 92.0057 57.5593L68.1823 76.7044C65.5647 78.808 61.6766 76.9446 61.6766 73.5864V71.0953Z" fill="#EEBBC2"/>
</svg>
