<svg width="912" height="531" viewBox="0 0 912 531" fill="none" xmlns="http://www.w3.org/2000/svg">
<path d="M775.226 528.419C775.226 528.419 912.288 467.466 909.106 344.499C905.923 221.532 776.009 164.343 687.826 240.275C599.642 316.208 542.579 252.527 496.884 188.366C451.188 124.205 349.288 43.2202 215.561 80.6306C75.4925 119.835 32.3986 261.696 46.317 356.346C56.2695 424.347 92.72 481.99 142.306 526.297C143.922 527.737 145.564 529.151 147.358 530.566L775.226 528.419Z" fill="#EAEDFB"/>
<path d="M517.168 487.8H402.587V515.839H517.168V487.8Z" fill="#404DC4"/>
<path d="M538.892 530.465H381.041C380.08 530.465 379.128 530.275 378.241 529.907C377.354 529.538 376.548 528.998 375.869 528.318C375.191 527.637 374.654 526.829 374.289 525.941C373.923 525.052 373.737 524.1 373.74 523.139V523.139C373.74 522.181 373.929 521.231 374.296 520.346C374.663 519.46 375.201 518.655 375.878 517.977C376.556 517.299 377.361 516.762 378.247 516.395C379.133 516.028 380.082 515.839 381.041 515.839H538.892C540.828 515.839 542.685 516.608 544.054 517.977C545.423 519.346 546.192 521.203 546.192 523.139V523.139C546.192 525.078 545.424 526.937 544.055 528.31C542.687 529.683 540.83 530.458 538.892 530.465V530.465Z" fill="#5B62DB"/>
<path d="M717.632 165.202C717.632 160.814 715.889 156.605 712.786 153.502C709.683 150.4 705.475 148.656 701.087 148.656H218.617C216.445 148.656 214.295 149.085 212.289 149.916C210.283 150.748 208.46 151.967 206.926 153.504C205.392 155.041 204.175 156.865 203.347 158.872C202.518 160.879 202.093 163.03 202.096 165.202V444.454H717.632V165.202Z" fill="#5B62DB"/>
<path d="M695.505 172.3H224.225V422.882H695.505V172.3Z" fill="#EAEDFB"/>
<path d="M218.617 490.781H701.087C705.475 490.781 709.684 489.038 712.787 485.935C715.89 482.832 717.633 478.624 717.633 474.236V444.454H202.097V474.135C202.08 476.315 202.495 478.476 203.318 480.495C204.141 482.514 205.355 484.35 206.89 485.898C208.426 487.445 210.253 488.673 212.266 489.512C214.278 490.35 216.437 490.781 218.617 490.781V490.781Z" fill="white"/>
<path d="M469.653 467.567C469.653 469.505 469.078 471.4 468.001 473.012C466.924 474.624 465.394 475.88 463.603 476.622C461.812 477.364 459.841 477.558 457.94 477.18C456.039 476.801 454.292 475.868 452.922 474.497C451.551 473.127 450.618 471.38 450.239 469.479C449.861 467.578 450.055 465.607 450.797 463.816C451.539 462.025 452.795 460.495 454.407 459.418C456.019 458.341 457.913 457.766 459.852 457.766C462.451 457.766 464.944 458.799 466.782 460.637C468.62 462.475 469.653 464.968 469.653 467.567Z" fill="#404DC4"/>
<path d="M355.098 172.3L247.49 422.907H285.582L394.353 172.3H355.098Z" fill="white"/>
<path d="M629.575 172.3L521.992 422.907H560.059L668.83 172.3H629.575Z" fill="white"/>
<path d="M442.902 172.3L335.294 422.907H448.005L556.775 172.3H442.902Z" fill="white"/>
<path d="M457.781 224.614H257.77V366.299H457.781V224.614Z" fill="white"/>
<path d="M457.781 224.614H257.77V366.299H457.781V224.614Z" stroke="#A2C9F8" stroke-width="3.01" stroke-linecap="round" stroke-linejoin="round"/>
<path d="M480.717 235.299H663.55" stroke="white" stroke-width="2.81" stroke-miterlimit="10"/>
<path d="M480.717 278.039H593.125" stroke="white" stroke-width="2.81" stroke-miterlimit="10"/>
<path d="M480.717 256.442H512.974" stroke="white" stroke-width="2.81" stroke-miterlimit="10"/>
<path d="M480.717 305.826H663.55" stroke="white" stroke-width="2.81" stroke-miterlimit="10"/>
<path d="M480.717 348.591H663.55" stroke="white" stroke-width="2.81" stroke-miterlimit="10"/>
<path d="M480.717 326.994H588.603" stroke="white" stroke-width="2.81" stroke-miterlimit="10"/>
<path d="M397.043 302.441C401.375 278.556 385.525 255.681 361.64 251.349C337.755 247.017 314.881 262.868 310.549 286.753C306.217 310.638 322.068 333.512 345.952 337.844C369.837 342.176 392.711 326.325 397.043 302.441Z" fill="#F04365"/>
<path d="M331.556 294.61H374.725" stroke="white" stroke-width="4.21" stroke-linecap="round" stroke-linejoin="round"/>
<path d="M748.425 379.03L757.923 518.694L772.927 518.643L776.034 378.954L748.425 379.03Z" fill="#1B1754"/>
<path d="M745.495 530.136H772.851V517.506H758.175C754.826 517.506 751.613 518.837 749.244 521.206C746.876 523.574 745.545 526.787 745.545 530.136H745.495Z" fill="#243051"/>
<path d="M777.853 530.136H806.372L805.21 517.506H790.534C787.184 517.506 783.972 518.837 781.603 521.206C779.234 523.574 777.904 526.787 777.904 530.136H777.853Z" fill="#243051"/>
<path d="M795.662 379.106L805.21 517.456L790.534 517.911L766.032 379.106H795.662Z" fill="#2A2B7B"/>
<path d="M770.073 307.215L808.999 341.948C810.555 343.352 812.565 344.15 814.661 344.197C816.756 344.243 818.799 343.535 820.416 342.2V342.2C821.341 341.46 822.106 340.54 822.666 339.497C823.226 338.453 823.57 337.307 823.676 336.128C823.782 334.948 823.649 333.759 823.284 332.632C822.919 331.505 822.33 330.464 821.553 329.57C821.553 329.57 802.734 304.31 792.201 295.974L770.073 307.215Z" fill="#F04365"/>
<path d="M830.168 391.811C830.168 393.665 829.618 395.477 828.588 397.018C827.558 398.559 826.095 399.76 824.382 400.47C822.67 401.179 820.785 401.365 818.968 401.003C817.15 400.641 815.48 399.749 814.169 398.438C812.859 397.127 811.966 395.458 811.604 393.64C811.243 391.822 811.428 389.938 812.138 388.225C812.847 386.513 814.048 385.049 815.589 384.019C817.13 382.99 818.942 382.44 820.796 382.44C823.281 382.44 825.665 383.427 827.423 385.185C829.18 386.942 830.168 389.326 830.168 391.811V391.811Z" fill="#F89A6E"/>
<path d="M808.746 338.032L813.798 384.562H827.136L824.105 336.567C824.027 335.495 823.727 334.45 823.224 333.499C822.721 332.548 822.026 331.713 821.183 331.045C820.339 330.377 819.367 329.893 818.326 329.621C817.285 329.35 816.199 329.298 815.137 329.469C813.177 329.805 811.421 330.881 810.231 332.475C809.042 334.068 808.51 336.058 808.746 338.032Z" fill="#F04365"/>
<path d="M766.057 289.533C766.057 289.533 746.96 290.139 745.848 309.236C744.737 328.333 748.071 379.106 748.071 379.106H795.56L796.748 317.067C799.728 300.496 791.317 289.962 774.291 289.28C771.544 289.21 768.795 289.294 766.057 289.533V289.533Z" fill="#F04365"/>
<path d="M796.596 330.884L788.412 323.584L796.293 345.989L796.596 330.884Z" fill="#D72E57"/>
<path d="M701.391 273.088C701.391 274.937 700.843 276.744 699.816 278.281C698.789 279.818 697.329 281.016 695.621 281.723C693.913 282.431 692.034 282.616 690.221 282.255C688.408 281.894 686.743 281.004 685.436 279.697C684.129 278.39 683.238 276.725 682.878 274.912C682.517 273.099 682.702 271.219 683.41 269.512C684.117 267.804 685.315 266.344 686.852 265.317C688.389 264.29 690.196 263.742 692.045 263.742C693.273 263.739 694.49 263.978 695.625 264.447C696.761 264.915 697.792 265.604 698.661 266.472C699.529 267.341 700.218 268.372 700.686 269.508C701.155 270.643 701.394 271.86 701.391 273.088V273.088Z" fill="#F89A6E"/>
<path d="M721.548 323.887L701.34 278.166L688.508 282.207L706.67 328.509C706.977 329.521 707.487 330.459 708.168 331.267C708.85 332.075 709.69 332.736 710.635 333.209C711.581 333.681 712.613 333.956 713.668 334.017C714.724 334.078 715.78 333.923 716.774 333.561V333.561C718.662 332.873 720.212 331.484 721.101 329.682C721.991 327.879 722.151 325.804 721.548 323.887V323.887Z" fill="#F04365"/>
<path d="M758.655 291.225C741.892 298.48 725.876 307.355 710.838 317.723C709.001 318.731 707.586 320.361 706.845 322.32C706.104 324.279 706.086 326.438 706.796 328.408V328.408C707.189 329.511 707.8 330.523 708.591 331.386C709.382 332.249 710.338 332.944 711.402 333.432C712.466 333.919 713.617 334.188 714.787 334.223C715.957 334.259 717.122 334.059 718.214 333.637L756.584 314.97L758.655 291.225Z" fill="#F04365"/>
<path d="M745.747 320.224L745.949 309.236L737.26 324.367L745.747 320.224Z" fill="#D72E57"/>
<path d="M760.524 278.595L761.131 291.427C761.199 292.793 761.656 294.11 762.449 295.225C763.241 296.339 764.335 297.204 765.602 297.717V297.717C766.734 298.167 767.963 298.32 769.171 298.159C770.378 297.999 771.525 297.532 772.501 296.802C773.476 296.072 774.249 295.104 774.743 293.991C775.238 292.877 775.439 291.655 775.327 290.442L774.544 277.686L760.524 278.595Z" fill="#F89A6E"/>
<path d="M760.954 287.866C760.954 287.866 772.852 289.482 774.544 277.761C776.237 266.041 763.228 270.916 763.228 270.916L760.702 280.515L760.954 287.866Z" fill="#E88057"/>
<path d="M767.37 257.073L770.982 269.274L780.228 263.868L767.37 257.073Z" fill="#243051"/>
<path d="M752.164 248.283C749.35 251.316 747.499 255.115 746.845 259.199C746.191 263.284 746.762 267.471 748.487 271.231C750.213 274.991 753.015 278.155 756.538 280.323C760.062 282.49 764.149 283.564 768.283 283.409C772.417 283.253 776.412 281.875 779.763 279.449C783.114 277.023 785.67 273.658 787.108 269.779C788.546 265.9 788.802 261.682 787.842 257.658C786.883 253.633 784.752 249.984 781.718 247.171C777.651 243.4 772.253 241.399 766.711 241.607C761.168 241.816 755.936 244.217 752.164 248.283V248.283Z" fill="#F89A6E"/>
<path d="M771.588 264.677C770.841 265.488 770.35 266.502 770.178 267.592C770.006 268.681 770.161 269.797 770.623 270.799C771.085 271.801 771.833 272.643 772.774 273.22C773.714 273.796 774.804 274.082 775.906 274.039C777.008 273.997 778.074 273.629 778.967 272.982C779.86 272.335 780.542 271.438 780.926 270.404C781.31 269.37 781.379 268.245 781.124 267.172C780.869 266.099 780.302 265.125 779.495 264.374C778.957 263.873 778.325 263.483 777.635 263.227C776.946 262.972 776.213 262.854 775.479 262.883C774.744 262.911 774.022 263.084 773.355 263.392C772.687 263.699 772.087 264.136 771.588 264.677V264.677Z" fill="#F89A6E"/>
<path d="M776.414 78.6528C781.36 57.631 768.328 36.5798 747.306 31.6337C726.284 26.6876 705.233 39.7195 700.287 60.7413C695.341 81.7632 708.373 102.815 729.395 107.761C750.417 112.707 771.468 99.6747 776.414 78.6528Z" fill="#5B62DB"/>
<path d="M743.954 86.6173C743.858 88.069 743.213 89.4298 742.15 90.4238C741.088 91.4179 739.688 91.971 738.233 91.971C736.778 91.971 735.377 91.4179 734.315 90.4238C733.252 89.4298 732.608 88.069 732.511 86.6173C732.608 85.1656 733.252 83.8049 734.315 82.8108C735.377 81.8167 736.778 81.2636 738.233 81.2636C739.688 81.2636 741.088 81.8167 742.15 82.8108C743.213 83.8049 743.858 85.1656 743.954 86.6173ZM743.272 48.0955L743.02 76.3111H733.395C733.395 65.6261 733.193 58.8311 733.193 48.0955H743.272Z" fill="white"/>
<path d="M488.371 0L491.579 8.36113C492.553 10.9081 494.053 13.221 495.981 15.1492C497.909 17.0774 500.222 18.5774 502.769 19.5514L511.13 22.7595L502.769 25.9675C500.222 26.9415 497.909 28.4415 495.981 30.3697C494.053 32.2979 492.553 34.6108 491.579 37.1578L488.371 45.5189L485.163 37.1578C484.186 34.6125 482.685 32.3009 480.757 30.3731C478.829 28.4453 476.518 26.9443 473.973 25.9675L465.611 22.7595L473.973 19.5514C476.518 18.5746 478.829 17.0736 480.757 15.1458C482.685 13.218 484.186 10.9065 485.163 8.36113L488.371 0Z" fill="#EAEDFB"/>
<path d="M578.146 72.0421L580.293 77.6247C580.945 79.3536 581.959 80.9236 583.265 82.2303C584.572 83.537 586.142 84.5503 587.871 85.2027L593.479 87.3751L587.871 89.5222C586.142 90.1747 584.572 91.188 583.265 92.4947C581.959 93.8013 580.945 95.3714 580.293 97.1003L578.146 102.683L575.999 97.1003C575.343 95.373 574.329 93.8044 573.023 92.4981C571.717 91.1918 570.148 90.1775 568.42 89.5222L562.813 87.3751L568.42 85.2027C570.148 84.5475 571.717 83.5331 573.023 82.2268C574.329 80.9205 575.343 79.352 575.999 77.6247L578.146 72.0421Z" fill="#EAEDFB"/>
<path d="M34.6466 119.91L36.3896 124.457C36.9239 125.84 37.7414 127.096 38.7898 128.145C39.8382 129.193 41.0942 130.011 42.4772 130.545L47.0242 132.288L42.4772 134.056C41.0951 134.585 39.8392 135.398 38.7906 136.442C37.742 137.486 36.9241 138.739 36.3896 140.118L34.6466 144.691L32.9037 140.118C32.3651 138.741 31.5456 137.491 30.4976 136.447C29.4495 135.403 28.1958 134.589 26.816 134.056L22.269 132.288L26.816 130.545C28.1967 130.006 29.4505 129.188 30.4984 128.14C31.5462 127.092 32.3653 125.838 32.9037 124.457L34.6466 119.91Z" fill="#EAEDFB"/>
<path d="M863.915 142.973L865.683 147.52C866.217 148.903 867.035 150.159 868.083 151.207C869.131 152.256 870.388 153.073 871.771 153.607L876.317 155.35L871.771 157.093C870.385 157.624 869.127 158.44 868.078 159.489C867.029 160.538 866.213 161.796 865.683 163.181L863.915 167.728L862.172 163.181C861.641 161.796 860.825 160.538 859.776 159.489C858.727 158.44 857.469 157.624 856.084 157.093L851.537 155.35L856.084 153.607C857.467 153.073 858.723 152.256 859.771 151.207C860.82 150.159 861.637 148.903 862.172 147.52L863.915 142.973Z" fill="#EAEDFB"/>
<path d="M232.156 50.0405L241.174 59.2099C242.138 60.1949 243.367 60.8791 244.712 61.1795C246.058 61.4799 247.461 61.3836 248.752 60.9024V60.9024C249.893 60.4798 250.906 59.7722 251.696 58.847C252.486 57.9218 253.025 56.8097 253.263 55.6169C253.501 54.4241 253.43 53.1902 253.056 52.0327C252.682 50.8753 252.018 49.8329 251.127 49.0048L242.058 40.0122L232.156 50.0405Z" fill="#F89A6E"/>
<path d="M238.598 56.5829C238.598 56.5829 244.231 44.9632 242.008 40.0122C237.158 29.2513 228.999 42.5382 228.999 42.5382L233.445 51.4298L238.598 56.5829Z" fill="#E88057"/>
<path d="M222.836 29.3777L233.672 36.0464L236.956 25.8665L222.836 29.3777Z" fill="#243051"/>
<path d="M205.658 32.9899C205.584 37.1256 206.738 41.1905 208.973 44.6705C211.209 48.1506 214.427 50.8896 218.219 52.5412C222.011 54.1928 226.208 54.6828 230.279 53.9492C234.35 53.2157 238.112 51.2916 241.089 48.4202C244.067 45.5488 246.126 41.859 247.006 37.8174C247.887 33.7758 247.549 29.5639 246.036 25.7142C244.523 21.8645 241.902 18.5499 238.505 16.1895C235.109 13.8291 231.088 12.5289 226.953 12.4533C221.407 12.3586 216.051 14.4677 212.058 18.3178C208.066 22.168 205.764 27.4446 205.658 32.9899V32.9899Z" fill="#F89A6E"/>
<path d="M231.045 32.2068C231.02 33.3177 231.325 34.4109 231.923 35.3478C232.52 36.2847 233.383 37.023 234.4 37.4689C235.418 37.9148 236.546 38.0484 237.639 37.8525C238.733 37.6567 239.744 37.1403 240.544 36.3689C241.344 35.5976 241.896 34.606 242.131 33.52C242.367 32.434 242.274 31.3026 241.865 30.2693C241.457 29.2361 240.75 28.3476 239.835 27.7166C238.921 27.0856 237.839 26.7406 236.728 26.7253C235.249 26.7049 233.823 27.2695 232.758 28.2961C231.694 29.3228 231.078 30.7283 231.045 32.2068Z" fill="#F89A6E"/>
<path d="M202.728 153.128L156.527 200.49L144.832 195.236L184.819 138.527C185.724 137.03 186.984 135.78 188.487 134.885C189.99 133.99 191.69 133.479 193.437 133.397C195.185 133.314 196.925 133.663 198.506 134.412C200.087 135.162 201.459 136.289 202.501 137.694V137.694C203.803 140.05 204.505 142.69 204.544 145.382C204.584 148.074 203.96 150.734 202.728 153.128V153.128Z" fill="#1B1754"/>
<path d="M126.897 195.009L150.263 211.378L156.578 200.314L144.579 191.902C143.217 190.937 141.677 190.251 140.048 189.884C138.42 189.518 136.734 189.478 135.09 189.767C133.446 190.056 131.875 190.668 130.469 191.568C129.062 192.467 127.849 193.637 126.897 195.009V195.009Z" fill="#243051"/>
<path d="M234.682 124.887L187.926 133.197L197.575 151.435H260.271C260.271 151.435 279.115 151.006 270.375 130.318L234.682 124.887Z" fill="#2A2B7B"/>
<path d="M205.179 139.159L227.458 212.792L214.828 219.991L179.64 148.859C178.808 147.318 178.369 145.597 178.362 143.846C178.355 142.096 178.78 140.371 179.6 138.824C180.419 137.277 181.608 135.956 183.06 134.979C184.513 134.002 186.184 133.399 187.926 133.222V133.222C192.447 132.742 203.234 135.117 205.179 139.159Z" fill="#2A2B7B"/>
<path d="M209.145 236.764L232.485 224.488L227.433 212.792L214.449 219.638C212.97 220.407 211.657 221.462 210.587 222.741C209.517 224.02 208.712 225.498 208.216 227.09C207.721 228.683 207.545 230.357 207.7 232.018C207.855 233.678 208.338 235.291 209.119 236.764H209.145Z" fill="#243051"/>
<path d="M232.005 69.4403C232.005 69.4403 233.874 61.1802 236.274 58.629C237.992 56.8102 244.105 51.0509 247.489 49.7879C247.986 49.6111 248.515 49.5466 249.039 49.599C249.563 49.6514 250.069 49.8194 250.521 50.091C260.263 56.3882 267.521 65.8688 271.057 76.9174C276.311 92.6545 277.423 137.542 277.423 137.542C262.544 147.217 234.682 124.912 234.682 124.912C235.39 96.974 228.494 95.5594 232.005 69.4403Z" fill="#F04365"/>
<path d="M228.999 125.897L250.95 126.882C252.336 127.022 253.736 126.873 255.062 126.446C256.388 126.019 257.612 125.322 258.655 124.399C259.699 123.476 260.541 122.347 261.127 121.084C261.714 119.82 262.033 118.449 262.064 117.056L263.05 79.1656L228.999 125.897Z" fill="#D72E57"/>
<path d="M209.245 120.517L196.236 115.869C195.721 115.682 195.165 115.633 194.625 115.726C194.085 115.819 193.578 116.051 193.154 116.399L187.37 121.123C186.951 121.434 186.623 121.852 186.421 122.333C186.219 122.815 186.151 123.342 186.223 123.859C186.296 124.376 186.506 124.864 186.832 125.271C187.158 125.679 187.588 125.991 188.077 126.175V126.175C188.583 126.385 189.137 126.449 189.678 126.359C190.218 126.27 190.722 126.031 191.134 125.67L193.912 123.144C193.912 123.144 203.41 128.575 207.906 127.084L209.245 120.517Z" fill="#F97D7D"/>
<path d="M242.336 62.8474L240.063 105.36L205.456 114.404L206.871 127.362L249.131 122.942C252.133 122.746 254.937 121.375 256.936 119.127C257.993 117.868 258.645 116.318 258.806 114.681L264.06 70.5771L242.336 62.8474Z" fill="#F04365"/>
<path d="M184.162 137.466L233.243 128.878C233.962 128.742 234.6 128.331 235.02 127.731C235.44 127.132 235.609 126.392 235.491 125.67C235.362 124.947 234.952 124.305 234.351 123.884C233.75 123.463 233.006 123.297 232.283 123.422L183.228 132.086C182.868 132.147 182.525 132.278 182.217 132.473C181.909 132.668 181.643 132.922 181.433 133.22C181.224 133.519 181.076 133.856 180.999 134.211C180.921 134.567 180.914 134.935 180.979 135.294C181.126 135.997 181.54 136.616 182.133 137.021C182.727 137.426 183.454 137.586 184.162 137.466V137.466Z" fill="#243051"/>
<path d="M184.54 134.814C184.391 134.82 184.243 134.791 184.107 134.73C183.971 134.668 183.851 134.576 183.757 134.46L154.228 100.99C154.133 100.896 154.057 100.784 154.005 100.661C153.953 100.537 153.927 100.404 153.927 100.27C153.927 100.136 153.953 100.004 154.005 99.8802C154.057 99.7567 154.133 99.6446 154.228 99.5505C154.324 99.4543 154.439 99.378 154.564 99.3259C154.69 99.2738 154.825 99.247 154.961 99.247C155.097 99.247 155.232 99.2738 155.357 99.3259C155.483 99.378 155.597 99.4543 155.693 99.5505L185.248 133.096C185.389 133.24 185.485 133.424 185.521 133.623C185.557 133.822 185.533 134.027 185.451 134.212C185.37 134.397 185.234 134.553 185.063 134.661C184.892 134.768 184.692 134.821 184.49 134.814H184.54Z" fill="#243051"/>
<path d="M673.251 473.932H628.919V486.335H673.251V473.932Z" fill="#FAFAFA"/>
<path d="M676.61 497.399H626.494V509.802H676.61V497.399Z" fill="#FAFAFA"/>
<path d="M623.135 524.579L648.092 460.065C648.358 459.391 648.821 458.812 649.42 458.405C650.019 457.997 650.727 457.779 651.451 457.779C652.176 457.779 652.884 457.997 653.483 458.405C654.082 458.812 654.545 459.391 654.811 460.065L679.793 524.579H623.135Z" fill="#F2A62F"/>
<path d="M683.683 530.01H619.522C618.933 530.014 618.349 529.9 617.804 529.677C617.258 529.454 616.762 529.125 616.344 528.71C615.927 528.294 615.595 527.8 615.368 527.256C615.142 526.712 615.026 526.128 615.026 525.539V525.539C615.026 524.347 615.5 523.203 616.343 522.36C617.186 521.517 618.33 521.043 619.522 521.043H683.683C684.876 521.043 686.019 521.517 686.862 522.36C687.706 523.203 688.179 524.347 688.179 525.539V525.539C688.173 526.727 687.696 527.864 686.853 528.702C686.011 529.54 684.871 530.01 683.683 530.01V530.01Z" fill="#EB9924"/>
<path d="M151.652 450.238H132.126V505.407H151.652V450.238Z" fill="#8BBDF8"/>
<path d="M254.562 450.238H235.036V505.407H254.562V450.238Z" fill="#8BBDF8"/>
<path d="M265.323 502.325H120.229C115.527 502.325 111.716 506.136 111.716 510.838V521.649C111.716 526.351 115.527 530.162 120.229 530.162H265.323C270.025 530.162 273.836 526.351 273.836 521.649V510.838C273.836 506.136 270.025 502.325 265.323 502.325Z" fill="#5B62DB"/>
<path d="M109.67 472.164H80.1152L148.949 395.803H178.504L109.67 472.164Z" fill="white"/>
<path d="M229.656 472.164H200.101L268.935 395.803H298.49L229.656 472.164Z" fill="white"/>
<path d="M168.425 472.164H138.871L207.705 395.803H237.259L168.425 472.164Z" fill="white"/>
<path d="M262.646 404.947H124.7C117.529 404.947 111.716 410.76 111.716 417.931V441.726C111.716 448.896 117.529 454.709 124.7 454.709H262.646C269.816 454.709 275.63 448.896 275.63 441.726V417.931C275.63 410.76 269.816 404.947 262.646 404.947Z" fill="#F2A62F"/>
<path d="M1 530.566H911" stroke="#102236" stroke-width="0.65" stroke-linecap="round" stroke-linejoin="round"/>
</svg>
